<?xml version="1.0" encoding="UTF-8"?>
<svg width="148px" height="148px" viewBox="0 0 148 148" version="1.1" xmlns="http://www.w3.org/2000/svg" xmlns:xlink="http://www.w3.org/1999/xlink">
    <title>Slice</title>
    <g id="Page-2" stroke="none" stroke-width="1" fill="none" fill-rule="evenodd">
        <g id="Group-2" fill="#FFFFFF">
            <path d="M74,0 C114.869071,0 148,33.1309285 148,74 C148,114.869071 114.869071,148 74,148 C33.1309285,148 0,114.869071 0,74 C0,33.1309285 33.1309285,0 74,0 Z M75,26 C47.9380473,26 26,47.9380473 26,75 C26,102.061953 47.9380473,124 75,124 C102.061953,124 124,102.061953 124,75 C124,47.9380473 102.061953,26 75,26 Z" id="Combined-Shape" fill-opacity="0.66"></path>
            <path d="M148,74.5 C148,115.092929 115.092929,148 74.5,148 C53.972802,148 35.4110039,139.585123 22.0760038,126.016766 L39.7009163,108.392123 C48.5643611,117.816979 61.1485834,123.702479 75.107438,123.702479 C101.945738,123.702479 123.702479,101.945738 123.702479,75.107438 C123.702479,61.1490731 117.817392,48.5652441 108.393115,39.7018493 L126.017767,22.0769878 C139.585537,35.411917 148,53.9733069 148,74.5 Z" id="Combined-Shape"></path>
            <circle id="Oval" cx="30.75" cy="117.75" r="12.75"></circle>
            <circle id="Oval" cx="117.25" cy="30.75" r="12.75"></circle>
            <path d="M106.833327,37.9150359 C117.916017,46.8986204 125,60.6220338 125,76 C125,103.061953 103.061953,125 76,125 C60.7533979,125 47.1332019,118.036528 38.1462948,107.116467 C41.5097131,107.697581 44.968936,108 48.5,108 C81.3609426,108 108,81.8086579 108,49.5 C108,45.6229611 107.616398,41.8340115 106.884474,38.1678391 Z" id="Combined-Shape" fill-opacity="0.25"></path>
        </g>
    </g>
</svg>